<svg width="154" height="28" viewBox="0 0 154 28" fill="none" xmlns="http://www.w3.org/2000/svg">
<path d="M10.3551 2C12.5384 2 14.0967 2.55 15.0301 3.65C15.7134 4.48333 16.0551 5.525 16.0551 6.775C16.0551 7.225 16.0134 7.7 15.9301 8.2L14.9551 13.775C14.6217 15.6583 13.8051 17.1667 12.5051 18.3C11.2051 19.4333 9.52175 20 7.45508 20H0.180078L3.35508 2H10.3551ZM8.78008 5.9H7.15508L5.38008 16.1H7.75508C8.53841 16.1 9.14675 15.8917 9.58008 15.475C10.0301 15.0417 10.3384 14.3417 10.5051 13.375L11.2301 9.275C11.2967 8.90833 11.3301 8.575 11.3301 8.275C11.3301 6.69167 10.4801 5.9 8.78008 5.9ZM22.2537 16.8C22.637 16.8 22.9787 16.7167 23.2787 16.55L23.1537 19.375C22.3704 20.025 21.4787 20.35 20.4787 20.35C18.962 20.35 17.9787 20 17.5287 19.3C17.2287 18.8333 17.0787 18.3417 17.0787 17.825C17.0787 17.2917 17.112 16.825 17.1787 16.425L18.6787 7.975H22.9287L21.5287 15.85C21.512 15.95 21.5037 16.0417 21.5037 16.125C21.5037 16.575 21.7537 16.8 22.2537 16.8ZM19.1787 3.9C19.1787 2.83333 19.412 2.05833 19.8787 1.575C20.362 1.075 21.1037 0.825 22.1037 0.825C23.5037 0.825 24.2037 1.44167 24.2037 2.675C24.2037 3.725 23.962 4.49167 23.4787 4.975C23.012 5.45833 22.2704 5.7 21.2537 5.7C19.8704 5.7 19.1787 5.1 19.1787 3.9ZM32.8656 12.325C32.8656 11.6083 32.5156 11.25 31.8156 11.25C31.1323 11.25 30.5656 11.5083 30.1156 12.025L28.7156 20H24.4656L26.5906 7.975H30.5406L30.2656 9.45C31.249 8.23333 32.4906 7.625 33.9906 7.625C35.4906 7.625 36.4656 7.99167 36.9156 8.725C37.199 9.19167 37.3406 9.725 37.3406 10.325C37.3406 10.925 37.299 11.4833 37.2156 12L36.5406 15.85C36.524 15.95 36.5156 16.0417 36.5156 16.125C36.5156 16.575 36.7656 16.8 37.2656 16.8C37.649 16.8 37.9906 16.7167 38.2906 16.55L38.1656 19.375C37.3823 20.025 36.4906 20.35 35.4906 20.35C33.224 20.35 32.0906 19.4 32.0906 17.5C32.0906 17.1667 32.124 16.8083 32.1906 16.425L32.7906 13.1C32.8406 12.8 32.8656 12.5417 32.8656 12.325ZM47.232 7.625C49.032 7.625 50.3904 8.01667 51.307 8.8C52.0237 9.41667 52.382 10.275 52.382 11.375C52.382 11.7417 52.3404 12.1417 52.257 12.575L51.732 15.5C51.4154 17.2667 50.6737 18.5167 49.507 19.25C48.357 19.9833 46.8154 20.35 44.882 20.35C42.9487 20.35 41.532 19.9833 40.632 19.25C39.9654 18.7 39.632 17.875 39.632 16.775C39.632 16.3917 39.6737 15.9667 39.757 15.5L40.282 12.575C40.8654 9.275 43.182 7.625 47.232 7.625ZM47.907 13.075C47.9404 12.9083 47.957 12.7 47.957 12.45C47.957 12.1833 47.8487 11.8917 47.632 11.575C47.4154 11.2583 47.032 11.1 46.482 11.1C45.9487 11.1 45.4987 11.2833 45.132 11.65C44.7654 12 44.532 12.475 44.432 13.075L44.107 14.95C44.0737 15.1167 44.057 15.3333 44.057 15.6C44.057 15.85 44.1654 16.125 44.382 16.425C44.5987 16.725 44.9737 16.875 45.507 16.875C46.057 16.875 46.5154 16.6917 46.882 16.325C47.2487 15.9417 47.482 15.4833 47.582 14.95L47.907 13.075ZM68.2492 14.525H65.2742L64.2992 20H59.7992L62.9742 2H70.5992C72.4826 2 73.8242 2.43333 74.6242 3.3C75.2076 3.96667 75.4992 4.81667 75.4992 5.85C75.4992 6.2 75.4659 6.56667 75.3992 6.95L74.8992 9.775C74.6492 11.1583 73.9159 12.3 72.6992 13.2C71.4826 14.0833 69.9992 14.525 68.2492 14.525ZM69.0242 5.9H66.7742L65.9492 10.625H68.1742C69.5409 10.625 70.3326 10.0167 70.5492 8.8L70.7242 7.775C70.7576 7.625 70.7742 7.425 70.7742 7.175C70.7742 6.925 70.6492 6.65 70.3992 6.35C70.1492 6.05 69.6909 5.9 69.0242 5.9ZM87.9416 10.525C87.9416 11.0917 87.8416 11.6417 87.6416 12.175C87.4583 12.7083 87.2749 13.1 87.0916 13.35L86.8166 13.7H83.0416C83.4583 13.3167 83.6666 12.8417 83.6666 12.275C83.6666 11.975 83.5666 11.7333 83.3666 11.55C83.1833 11.35 82.9249 11.25 82.5916 11.25C82.0249 11.25 81.5333 11.5333 81.1166 12.1L79.7166 20H75.4666L77.5916 7.975H81.5416L81.2416 9.65C82.1916 8.3 83.3416 7.625 84.6916 7.625C85.7749 7.625 86.5833 7.88333 87.1166 8.4C87.6666 8.91667 87.9416 9.625 87.9416 10.525ZM93.9334 16.8C94.3167 16.8 94.6584 16.7167 94.9584 16.55L94.8334 19.375C94.0501 20.025 93.1584 20.35 92.1584 20.35C90.6417 20.35 89.6584 20 89.2084 19.3C88.9084 18.8333 88.7584 18.3417 88.7584 17.825C88.7584 17.2917 88.7917 16.825 88.8584 16.425L90.3584 7.975H94.6084L93.2084 15.85C93.1917 15.95 93.1834 16.0417 93.1834 16.125C93.1834 16.575 93.4334 16.8 93.9334 16.8ZM90.8584 3.9C90.8584 2.83333 91.0917 2.05833 91.5584 1.575C92.0417 1.075 92.7834 0.825 93.7834 0.825C95.1834 0.825 95.8834 1.44167 95.8834 2.675C95.8834 3.725 95.6417 4.49167 95.1584 4.975C94.6917 5.45833 93.9501 5.7 92.9334 5.7C91.5501 5.7 90.8584 5.1 90.8584 3.9ZM101.27 14.625C101.22 14.925 101.195 15.225 101.195 15.525C101.195 16.325 101.645 16.725 102.545 16.725C103.279 16.725 103.887 16.4667 104.37 15.95L105.77 7.975H110.02L107.82 20.4C107.454 22.5167 106.612 24.1917 105.295 25.425C103.995 26.6583 102.504 27.275 100.82 27.275C99.137 27.275 97.9203 26.9667 97.1703 26.35C96.437 25.7333 96.0703 24.925 96.0703 23.925C96.0703 22.5083 96.9453 21.25 98.6953 20.15C97.7453 19.9167 97.1453 19.4417 96.8953 18.725C96.7453 18.325 96.6703 17.875 96.6703 17.375C96.6703 16.875 96.712 16.3667 96.7953 15.85L98.1953 7.975H102.445L101.27 14.625ZM101.395 23.7C102.479 23.7 103.187 22.7167 103.52 20.75L103.77 19.3C101.454 20.3833 100.295 21.475 100.295 22.575C100.295 22.9083 100.387 23.175 100.57 23.375C100.77 23.5917 101.045 23.7 101.395 23.7ZM122.478 16.15C122.478 16.5833 122.695 16.8 123.128 16.8C123.578 16.8 123.953 16.7167 124.253 16.55L124.128 19.375C123.328 20.025 122.428 20.35 121.428 20.35C119.595 20.35 118.578 19.6833 118.378 18.35C117.545 19.6833 116.32 20.35 114.703 20.35C111.97 20.35 110.603 19.175 110.603 16.825C110.603 16.425 110.645 15.9833 110.728 15.5L111.253 12.575C111.52 11.075 112.128 9.88333 113.078 9C114.045 8.1 115.295 7.65 116.828 7.65C118.378 7.65 119.428 8.00833 119.978 8.725L120.103 7.975H123.903L122.503 15.85C122.486 15.95 122.478 16.05 122.478 16.15ZM115.078 14.95C115.045 15.1 115.028 15.3083 115.028 15.575C115.028 15.8417 115.153 16.1083 115.403 16.375C115.653 16.625 116.07 16.75 116.653 16.75C117.253 16.75 117.77 16.5167 118.203 16.05L118.953 11.85C118.77 11.4333 118.336 11.225 117.653 11.225C116.37 11.225 115.62 11.8417 115.403 13.075L115.078 14.95ZM133.842 12.325C133.842 11.6083 133.492 11.25 132.792 11.25C132.109 11.25 131.542 11.5083 131.092 12.025L129.692 20H125.442L127.567 7.975H131.517L131.242 9.45C132.226 8.23333 133.467 7.625 134.967 7.625C136.467 7.625 137.442 7.99167 137.892 8.725C138.176 9.19167 138.317 9.725 138.317 10.325C138.317 10.925 138.276 11.4833 138.192 12L137.517 15.85C137.501 15.95 137.492 16.0417 137.492 16.125C137.492 16.575 137.742 16.8 138.242 16.8C138.626 16.8 138.967 16.7167 139.267 16.55L139.142 19.375C138.359 20.025 137.467 20.35 136.467 20.35C134.201 20.35 133.067 19.4 133.067 17.5C133.067 17.1667 133.101 16.8083 133.167 16.425L133.767 13.1C133.817 12.8 133.842 12.5417 133.842 12.325ZM148.209 7.625C150.009 7.625 151.367 8.01667 152.284 8.8C153 9.41667 153.359 10.275 153.359 11.375C153.359 11.7417 153.317 12.1417 153.234 12.575L152.709 15.5C152.392 17.2667 151.65 18.5167 150.484 19.25C149.334 19.9833 147.792 20.35 145.859 20.35C143.925 20.35 142.509 19.9833 141.609 19.25C140.942 18.7 140.609 17.875 140.609 16.775C140.609 16.3917 140.65 15.9667 140.734 15.5L141.259 12.575C141.842 9.275 144.159 7.625 148.209 7.625ZM148.884 13.075C148.917 12.9083 148.934 12.7 148.934 12.45C148.934 12.1833 148.825 11.8917 148.609 11.575C148.392 11.2583 148.009 11.1 147.459 11.1C146.925 11.1 146.475 11.2833 146.109 11.65C145.742 12 145.509 12.475 145.409 13.075L145.084 14.95C145.05 15.1167 145.034 15.3333 145.034 15.6C145.034 15.85 145.142 16.125 145.359 16.425C145.575 16.725 145.95 16.875 146.484 16.875C147.034 16.875 147.492 16.6917 147.859 16.325C148.225 15.9417 148.459 15.4833 148.559 14.95L148.884 13.075Z" fill="#6F34FE"/>
</svg>
